<svg width="20" height="25" viewBox="0 0 20 25" fill="none" xmlns="http://www.w3.org/2000/svg">
<mask id="mask0_101_6477" style="mask-type:alpha" maskUnits="userSpaceOnUse" x="0" y="15" width="20" height="10">
<path fill-rule="evenodd" clip-rule="evenodd" d="M0.666748 15.4121H19.1466V24.0151H0.666748V15.4121Z" fill="white"/>
</mask>
<g mask="url(#mask0_101_6477)">
<path fill-rule="evenodd" clip-rule="evenodd" d="M9.90791 17.1621C4.93675 17.1621 2.41675 18.0161 2.41675 19.7019C2.41675 21.4029 4.93675 22.2651 9.90791 22.2651C14.8779 22.2651 17.3967 21.4111 17.3967 19.7253C17.3967 18.0243 14.8779 17.1621 9.90791 17.1621ZM9.90791 24.0151C7.62241 24.0151 0.666748 24.0151 0.666748 19.7019C0.666748 15.8566 5.94125 15.4121 9.90791 15.4121C12.1934 15.4121 19.1467 15.4121 19.1467 19.7253C19.1467 23.5706 13.8734 24.0151 9.90791 24.0151Z" fill="#61646B"/>
</g>
<mask id="mask1_101_6477" style="mask-type:alpha" maskUnits="userSpaceOnUse" x="3" y="0" width="14" height="14">
<path fill-rule="evenodd" clip-rule="evenodd" d="M3.71167 0.833496H16.1017V13.2219H3.71167V0.833496Z" fill="white"/>
</mask>
<g mask="url(#mask1_101_6477)">
<path fill-rule="evenodd" clip-rule="evenodd" d="M9.90787 2.49901C7.41004 2.49901 5.37771 4.53017 5.37771 7.02801C5.36954 9.51767 7.38671 11.5477 9.87404 11.557L9.90787 12.39V11.557C12.4045 11.557 14.4357 9.52467 14.4357 7.02801C14.4357 4.53017 12.4045 2.49901 9.90787 2.49901ZM9.90787 13.2218H9.87054C6.46154 13.2113 3.70004 10.4312 3.71171 7.02451C3.71171 3.61201 6.49071 0.833008 9.90787 0.833008C13.3239 0.833008 16.1017 3.61201 16.1017 7.02801C16.1017 10.444 13.3239 13.2218 9.90787 13.2218Z" fill="#61646B"/>
</g>
</svg>
