<svg width="25" height="25" viewBox="0 0 25 25" fill="none" xmlns="http://www.w3.org/2000/svg">
<path fill-rule="evenodd" clip-rule="evenodd" d="M16.7542 3.64581C19.549 3.64581 21.3542 5.34894 21.3542 7.98435V17.0146C21.3542 19.65 19.549 21.3541 16.7542 21.3541H8.24592C5.45112 21.3541 3.64592 19.65 3.64592 17.0146V7.98435C3.64592 5.34894 5.45112 3.64581 8.24592 3.64581H16.7542ZM8.24592 22.9166H16.7542C20.4397 22.9166 22.9167 20.5448 22.9167 17.0146V7.98435C22.9167 4.45415 20.4397 2.08331 16.7542 2.08331H8.24592C4.5605 2.08331 2.08342 4.45415 2.08342 7.98435V17.0146C2.08342 20.5448 4.5605 22.9166 8.24592 22.9166V22.9166Z" fill="#2940D3"/>
<path fill-rule="evenodd" clip-rule="evenodd" d="M8.24385 13.2812H16.7563C17.1876 13.2812 17.5376 12.9312 17.5376 12.5C17.5376 12.0687 17.1876 11.7188 16.7563 11.7188H8.24385C7.8126 11.7188 7.4626 12.0687 7.4626 12.5C7.4626 12.9312 7.8126 13.2812 8.24385 13.2812" fill="#2940D3"/>
<path fill-rule="evenodd" clip-rule="evenodd" d="M12.1645 17.1854C12.3645 17.1854 12.5655 17.1094 12.7176 16.9552C13.0218 16.6489 13.0207 16.1552 12.7155 15.851L9.35093 12.5L12.7155 9.14893C13.0207 8.84477 13.0218 8.35102 12.7176 8.04477C12.4134 7.73852 11.9197 7.73852 11.6134 8.04268L7.69259 11.9469C7.54468 12.0927 7.46238 12.2927 7.46238 12.5C7.46238 12.7073 7.54468 12.9073 7.69259 13.0531L11.6134 16.9573C11.7655 17.1094 11.9655 17.1854 12.1645 17.1854" fill="#2940D3"/>
</svg>
