<svg width="25" height="25" viewBox="0 0 25 25" fill="none" xmlns="http://www.w3.org/2000/svg">
<path fill-rule="evenodd" clip-rule="evenodd" d="M8.24575 3.64581C5.45096 3.64581 3.64575 5.34894 3.64575 7.98435V17.0146C3.64575 19.65 5.45096 21.3541 8.24575 21.3541H16.7541C19.5489 21.3541 21.3541 19.65 21.3541 17.0146V7.98435C21.3541 5.34894 19.5489 3.64581 16.7541 3.64581H8.24575ZM16.7541 22.9166H8.24575C4.56033 22.9166 2.08325 20.5448 2.08325 17.0146V7.98435C2.08325 4.45415 4.56033 2.08331 8.24575 2.08331H16.7541C20.4395 2.08331 22.9166 4.45415 22.9166 7.98435V17.0146C22.9166 20.5448 20.4395 22.9166 16.7541 22.9166Z" fill="#2940D3"/>
<path fill-rule="evenodd" clip-rule="evenodd" d="M16.7562 13.2812H8.24365C7.8124 13.2812 7.4624 12.9312 7.4624 12.5C7.4624 12.0687 7.8124 11.7188 8.24365 11.7188H16.7562C17.1874 11.7188 17.5374 12.0687 17.5374 12.5C17.5374 12.9312 17.1874 13.2812 16.7562 13.2812Z" fill="#2940D3"/>
<path fill-rule="evenodd" clip-rule="evenodd" d="M12.8355 17.1854C12.6355 17.1854 12.4345 17.1094 12.2824 16.9552C11.9782 16.6489 11.9793 16.1552 12.2845 15.851L15.6491 12.5L12.2845 9.14893C11.9793 8.84477 11.9782 8.35102 12.2824 8.04477C12.5866 7.73852 13.0803 7.73852 13.3866 8.04268L17.3074 11.9469C17.4553 12.0927 17.5376 12.2927 17.5376 12.5C17.5376 12.7073 17.4553 12.9073 17.3074 13.0531L13.3866 16.9573C13.2345 17.1094 13.0345 17.1854 12.8355 17.1854Z" fill="#2940D3"/>
</svg>
