<svg width="19" height="17" viewBox="0 0 19 17" fill="none" xmlns="http://www.w3.org/2000/svg">
<path d="M19 1.95482V12.6658C19 13.5396 18.25 14.3414 17.329 14.4495L17.0347 14.4855C15.4776 14.6837 13.2844 15.2963 11.5185 15.9989C10.9014 16.2422 10.2178 15.8007 10.2178 15.1611V2.63045C10.2178 2.29714 10.4172 1.99086 10.7305 1.82871C12.4679 0.936874 15.0978 0.144134 16.8828 0H16.9397C18.0791 0 19 0.873815 19 1.95482ZM8.27903 1.82871C6.54158 0.936874 3.91165 0.144134 2.12672 0H2.06026C0.920947 0 0 0.873815 0 1.95482V12.6658C0 13.5396 0.75005 14.3414 1.671 14.4495L1.96532 14.4855C3.52239 14.6837 5.71557 15.2963 7.48151 15.9989C8.09864 16.2422 8.78223 15.8007 8.78223 15.1611V2.63045C8.7835 2.46596 8.73728 2.30428 8.64857 2.16294C8.55986 2.02161 8.43206 1.90602 8.27903 1.82871ZM2.85779 4.55825H4.994C5.18286 4.55825 5.36398 4.62944 5.49752 4.75614C5.63105 4.88285 5.70608 5.0547 5.70608 5.23388C5.70608 5.41307 5.63105 5.58492 5.49752 5.71163C5.36398 5.83833 5.18286 5.90951 4.994 5.90951H2.85779C2.66893 5.90951 2.48781 5.83833 2.35427 5.71163C2.22073 5.58492 2.14571 5.41307 2.14571 5.23388C2.14571 5.0547 2.22073 4.88285 2.35427 4.75614C2.48781 4.62944 2.66893 4.55825 2.85779 4.55825ZM5.70608 8.61204H2.85779C2.66893 8.61204 2.48781 8.54085 2.35427 8.41415C2.22073 8.28744 2.14571 8.11559 2.14571 7.93641C2.14571 7.75722 2.22073 7.58537 2.35427 7.45866C2.48781 7.33196 2.66893 7.26077 2.85779 7.26077H5.70608C5.89493 7.26077 6.07605 7.33196 6.20959 7.45866C6.34313 7.58537 6.41815 7.75722 6.41815 7.93641C6.41815 8.11559 6.34313 8.28744 6.20959 8.41415C6.07605 8.54085 5.89493 8.61204 5.70608 8.61204Z" fill="#EF7AB6"/>
</svg>
