<svg width="11" height="11" viewBox="0 0 11 11" fill="none" xmlns="http://www.w3.org/2000/svg">
<path fill-rule="evenodd" clip-rule="evenodd" d="M9.47231 4.53955H1.30298C1.11323 4.53955 0.959229 4.38555 0.959229 4.1958C0.959229 4.00605 1.11323 3.85205 1.30298 3.85205H9.47231C9.66206 3.85205 9.81606 4.00605 9.81606 4.1958C9.81606 4.38555 9.66206 4.53955 9.47231 4.53955" fill="#FFAE1B"/>
<path fill-rule="evenodd" clip-rule="evenodd" d="M7.42566 6.32947C7.23591 6.32947 7.08008 6.17547 7.08008 5.98572C7.08008 5.79597 7.23179 5.64197 7.42154 5.64197H7.42566C7.61541 5.64197 7.76941 5.79597 7.76941 5.98572C7.76941 6.17547 7.61541 6.32947 7.42566 6.32947" fill="#FFAE1B"/>
<path fill-rule="evenodd" clip-rule="evenodd" d="M5.39173 6.32947C5.20198 6.32947 5.04614 6.17547 5.04614 5.98572C5.04614 5.79597 5.19785 5.64197 5.3876 5.64197H5.39173C5.58148 5.64197 5.73548 5.79597 5.73548 5.98572C5.73548 6.17547 5.58148 6.32947 5.39173 6.32947" fill="#FFAE1B"/>
<path fill-rule="evenodd" clip-rule="evenodd" d="M3.35361 6.32947C3.16386 6.32947 3.00757 6.17547 3.00757 5.98572C3.00757 5.79597 3.15974 5.64197 3.34949 5.64197H3.35361C3.54336 5.64197 3.69736 5.79597 3.69736 5.98572C3.69736 6.17547 3.54336 6.32947 3.35361 6.32947" fill="#FFAE1B"/>
<path fill-rule="evenodd" clip-rule="evenodd" d="M7.42566 8.11084C7.23591 8.11084 7.08008 7.95684 7.08008 7.76709C7.08008 7.57734 7.23179 7.42334 7.42154 7.42334H7.42566C7.61541 7.42334 7.76941 7.57734 7.76941 7.76709C7.76941 7.95684 7.61541 8.11084 7.42566 8.11084" fill="#FFAE1B"/>
<path fill-rule="evenodd" clip-rule="evenodd" d="M5.39173 8.11084C5.20198 8.11084 5.04614 7.95684 5.04614 7.76709C5.04614 7.57734 5.19785 7.42334 5.3876 7.42334H5.39173C5.58148 7.42334 5.73548 7.57734 5.73548 7.76709C5.73548 7.95684 5.58148 8.11084 5.39173 8.11084" fill="#FFAE1B"/>
<path fill-rule="evenodd" clip-rule="evenodd" d="M3.35361 8.11084C3.16386 8.11084 3.00757 7.95684 3.00757 7.76709C3.00757 7.57734 3.15974 7.42334 3.34949 7.42334H3.35361C3.54336 7.42334 3.69736 7.57734 3.69736 7.76709C3.69736 7.95684 3.54336 8.11084 3.35361 8.11084" fill="#FFAE1B"/>
<path fill-rule="evenodd" clip-rule="evenodd" d="M7.23877 2.65425C7.04902 2.65425 6.89502 2.50025 6.89502 2.3105V0.802124C6.89502 0.612374 7.04902 0.458374 7.23877 0.458374C7.42852 0.458374 7.58252 0.612374 7.58252 0.802124V2.3105C7.58252 2.50025 7.42852 2.65425 7.23877 2.65425" fill="#FFAE1B"/>
<path fill-rule="evenodd" clip-rule="evenodd" d="M3.53638 2.65425C3.34663 2.65425 3.19263 2.50025 3.19263 2.3105V0.802124C3.19263 0.612374 3.34663 0.458374 3.53638 0.458374C3.72613 0.458374 3.88013 0.612374 3.88013 0.802124V2.3105C3.88013 2.50025 3.72613 2.65425 3.53638 2.65425" fill="#FFAE1B"/>
<mask id="mask0_1_1772" style="mask-type:luminance" maskUnits="userSpaceOnUse" x="0" y="1" width="10" height="10">
<path fill-rule="evenodd" clip-rule="evenodd" d="M0.916748 1.18213H9.85425V10.3125H0.916748V1.18213Z" fill="white"/>
</mask>
<g mask="url(#mask0_1_1772)">
<path fill-rule="evenodd" clip-rule="evenodd" d="M3.44721 1.86963C2.25875 1.86963 1.60425 2.5035 1.60425 3.65438V7.80184C1.60425 8.97792 2.25875 9.62509 3.44721 9.62509H7.32379C8.51225 9.62509 9.16675 8.98984 9.16675 7.83667V3.65438C9.16858 3.08834 9.01641 2.64834 8.71437 2.34584C8.40362 2.03417 7.92466 1.86963 7.32791 1.86963H3.44721ZM7.32379 10.3126H3.44721C1.88658 10.3126 0.916748 9.35055 0.916748 7.80184V3.65438C0.916748 2.12905 1.88658 1.18213 3.44721 1.18213H7.32791C8.11121 1.18213 8.75883 1.4168 9.20112 1.86C9.63058 2.2913 9.85654 2.91142 9.85425 3.6553V7.83667C9.85425 9.36384 8.88441 10.3126 7.32379 10.3126V10.3126Z" fill="#FFAE1B"/>
</g>
</svg>
