<svg width="15" height="16" viewBox="0 0 15 16" fill="none" xmlns="http://www.w3.org/2000/svg">
<path fill-rule="evenodd" clip-rule="evenodd" d="M12.9694 14.2124H8.43628C8.17753 14.2124 7.96753 14.0024 7.96753 13.7437C7.96753 13.4849 8.17753 13.2749 8.43628 13.2749H12.9694C13.2282 13.2749 13.4382 13.4849 13.4382 13.7437C13.4382 14.0024 13.2282 14.2124 12.9694 14.2124" fill="#2940D3"/>
<mask id="mask0_1_2355" style="mask-type:alpha" maskUnits="userSpaceOnUse" x="1" y="2" width="11" height="13">
<path fill-rule="evenodd" clip-rule="evenodd" d="M1.25024 2.375H11.9881V14.2122H1.25024V2.375Z" fill="white"/>
</mask>
<g mask="url(#mask0_1_2355)">
<path fill-rule="evenodd" clip-rule="evenodd" d="M8.19416 3.6354L2.30979 10.9948C2.20292 11.1285 2.16354 11.301 2.20292 11.4667L2.62854 13.2698L4.52792 13.246C4.70854 13.2442 4.87542 13.1635 4.98604 13.026C6.99666 10.5104 10.8298 5.71415 10.9385 5.57353C11.041 5.40728 11.081 5.17228 11.0273 4.94603C10.9723 4.71415 10.8279 4.51728 10.6198 4.39165C10.5754 4.36103 9.52229 3.54353 9.48979 3.5179C9.09354 3.2004 8.51541 3.2554 8.19416 3.6354V3.6354ZM2.25854 14.2123C2.04167 14.2123 1.85292 14.0635 1.80229 13.8517L1.29042 11.6823C1.18479 11.2329 1.28979 10.7692 1.57792 10.4092L7.46541 3.0454C7.46791 3.0429 7.46979 3.03978 7.47229 3.03728C8.11792 2.2654 9.28541 2.15165 10.0729 2.78353C10.1042 2.8079 11.1498 3.6204 11.1498 3.6204C11.5298 3.84665 11.8267 4.25103 11.9392 4.72978C12.051 5.20353 11.9698 5.69228 11.7092 6.1054C11.6898 6.13603 11.6729 6.16228 5.71792 13.6123C5.43104 13.9698 5.00104 14.1779 4.53917 14.1835L2.26479 14.2123H2.25854Z" fill="#2940D3"/>
</g>
<path fill-rule="evenodd" clip-rule="evenodd" d="M10.1396 7.8031C10.0396 7.8031 9.93964 7.77123 9.85401 7.70623L6.44651 5.08873C6.24151 4.93123 6.20276 4.63748 6.36026 4.43123C6.51839 4.22623 6.81214 4.1881 7.01776 4.3456L10.4259 6.96248C10.6309 7.11998 10.6696 7.41435 10.5115 7.61998C10.4196 7.73998 10.2803 7.8031 10.1396 7.8031" fill="#2940D3"/>
</svg>
