<svg width="25" height="26" viewBox="0 0 25 26" fill="none" xmlns="http://www.w3.org/2000/svg">
<path fill-rule="evenodd" clip-rule="evenodd" d="M14.0028 17.3399C15.4075 17.3399 16.5508 18.475 16.5508 19.8704V23.459C16.5508 23.7589 16.7912 23.9992 17.0992 24.0062H19.3228C21.0752 24.0062 22.4997 22.5992 22.4997 20.8702V10.6922C22.4915 10.0972 22.208 9.53721 21.7215 9.16504L14.0297 3.03071C12.9972 2.21287 11.5528 2.21287 10.5168 3.03304L2.87751 9.16271C2.37234 9.54654 2.08884 10.1065 2.08301 10.712V20.8702C2.08301 22.5992 3.50751 24.0062 5.25984 24.0062H7.50451C7.82067 24.0062 8.07734 23.7554 8.07734 23.4474C8.07734 23.3797 8.08551 23.312 8.09951 23.2479V19.8704C8.09951 18.4832 9.23584 17.3492 10.63 17.3399H14.0028ZM19.3228 25.7562H17.0782C15.7925 25.7259 14.8008 24.7167 14.8008 23.459V19.8704C14.8008 19.4399 14.4427 19.0899 14.0028 19.0899H10.6358C10.2053 19.0922 9.84951 19.4434 9.84951 19.8704V23.4474C9.84951 23.5349 9.83784 23.6189 9.81334 23.6982C9.68734 24.8532 8.70034 25.7562 7.50451 25.7562H5.25984C2.54267 25.7562 0.333008 23.564 0.333008 20.8702V10.7039C0.344674 9.54421 0.879008 8.48254 1.80184 7.78371L9.42601 1.66454C11.1048 0.33454 13.444 0.33454 15.1193 1.66221L22.7983 7.78721C23.7002 8.47437 24.2345 9.53371 24.2497 10.6794V20.8702C24.2497 23.564 22.04 25.7562 19.3228 25.7562Z" fill="#61646B"/>
</svg>
