<svg width="15" height="16" viewBox="0 0 15 16" fill="none" xmlns="http://www.w3.org/2000/svg">
<mask id="mask0_1_2359" style="mask-type:alpha" maskUnits="userSpaceOnUse" x="1" y="1" width="13" height="14">
<path fill-rule="evenodd" clip-rule="evenodd" d="M1.25 1.75H13.7499V14.25H1.25V1.75Z" fill="white"/>
</mask>
<g mask="url(#mask0_1_2359)">
<path fill-rule="evenodd" clip-rule="evenodd" d="M4.79 2.6875C3.20938 2.6875 2.1875 3.77062 2.1875 5.4475V10.5525C2.1875 12.2294 3.20938 13.3125 4.79 13.3125H10.2075C11.79 13.3125 12.8125 12.2294 12.8125 10.5525V5.4475C12.8125 3.77062 11.79 2.6875 10.2087 2.6875H4.79ZM10.2075 14.25H4.79C2.6725 14.25 1.25 12.7638 1.25 10.5525V5.4475C1.25 3.23625 2.6725 1.75 4.79 1.75H10.2087C12.3269 1.75 13.75 3.23625 13.75 5.4475V10.5525C13.75 12.7638 12.3269 14.25 10.2075 14.25Z" fill="#2940D3"/>
</g>
<path fill-rule="evenodd" clip-rule="evenodd" d="M7.49634 10.9688C7.23759 10.9688 7.02759 10.7587 7.02759 10.5V8C7.02759 7.74125 7.23759 7.53125 7.49634 7.53125C7.75509 7.53125 7.96509 7.74125 7.96509 8V10.5C7.96509 10.7587 7.75509 10.9688 7.49634 10.9688Z" fill="#2940D3"/>
<path fill-rule="evenodd" clip-rule="evenodd" d="M7.49922 6.25244C7.15359 6.25244 6.87109 5.97307 6.87109 5.62744C6.87109 5.28182 7.14797 5.00244 7.49297 5.00244H7.49922C7.84484 5.00244 8.12422 5.28182 8.12422 5.62744C8.12422 5.97307 7.84484 6.25244 7.49922 6.25244Z" fill="#2940D3"/>
</svg>
