<svg width="13" height="13" viewBox="0 0 13 13" fill="none" xmlns="http://www.w3.org/2000/svg">
<path fill-rule="evenodd" clip-rule="evenodd" d="M6.63566 4.60425C6.11295 4.60425 5.68774 5.02946 5.68774 5.55271C5.68774 6.07541 6.11295 6.50008 6.63566 6.50008C7.15837 6.50008 7.58358 6.07541 7.58358 5.55271C7.58358 5.02946 7.15837 4.60425 6.63566 4.60425ZM6.63566 7.31258C5.66499 7.31258 4.87524 6.52337 4.87524 5.55271C4.87524 4.5815 5.66499 3.79175 6.63566 3.79175C7.60633 3.79175 8.39608 4.5815 8.39608 5.55271C8.39608 6.52337 7.60633 7.31258 6.63566 7.31258Z" fill="#F74A4A"/>
<mask id="mask0_1_1776" style="mask-type:luminance" maskUnits="userSpaceOnUse" x="2" y="1" width="10" height="11">
<path fill-rule="evenodd" clip-rule="evenodd" d="M2.16675 1.08337H11.104V11.6459H2.16675V1.08337Z" fill="white"/>
</mask>
<g mask="url(#mask0_1_1776)">
<path fill-rule="evenodd" clip-rule="evenodd" d="M6.63525 1.89587C4.61917 1.89587 2.979 3.55175 2.979 5.58625C2.979 8.17487 6.02534 10.6969 6.63525 10.8312C7.24517 10.6963 10.2915 8.17433 10.2915 5.58625C10.2915 3.55175 8.65134 1.89587 6.63525 1.89587ZM6.63525 11.6459C5.6635 11.6459 2.1665 8.63854 2.1665 5.58625C2.1665 3.10325 4.17121 1.08337 6.63525 1.08337C9.0993 1.08337 11.104 3.10325 11.104 5.58625C11.104 8.63854 7.607 11.6459 6.63525 11.6459Z" fill="#F74A4A"/>
</g>
</svg>
