<svg width="20" height="19" viewBox="0 0 20 19" fill="none" xmlns="http://www.w3.org/2000/svg">
<path fill-rule="evenodd" clip-rule="evenodd" d="M14.1023 8.07498C13.7573 8.07498 13.4773 7.80898 13.4773 7.48123V5.78152C13.4773 4.12219 12.0565 2.77239 10.3098 2.77239H10.2965C9.4523 2.77239 8.66146 3.08114 8.06396 3.64402C7.4623 4.20927 7.1298 4.96373 7.12646 5.76806V7.48123C7.12646 7.80898 6.84646 8.07498 6.50146 8.07498C6.15646 8.07498 5.87646 7.80898 5.87646 7.48123V5.78152C5.88146 4.64152 6.34563 3.58939 7.18313 2.80089C8.02147 2.0116 9.12813 1.55481 10.3123 1.58489C12.7456 1.58489 14.7273 3.46748 14.7273 5.78152V7.48123C14.7273 7.80898 14.4473 8.07498 14.1023 8.07498Z" fill="#2940D3"/>
<path fill-rule="evenodd" clip-rule="evenodd" d="M7.11825 8.01855C5.71992 8.01855 4.58325 9.09839 4.58325 10.4268V13.8223C4.58325 15.1507 5.71992 16.2305 7.11825 16.2305H13.4858C14.8833 16.2305 16.0208 15.1507 16.0208 13.8223V10.4268C16.0208 9.09839 14.8833 8.01855 13.4858 8.01855H7.11825ZM13.4858 17.418H7.11825C5.03075 17.418 3.33325 15.8054 3.33325 13.8223V10.4268C3.33325 8.44368 5.03075 6.83105 7.11825 6.83105H13.4858C15.5733 6.83105 17.2708 8.44368 17.2708 10.4268V13.8223C17.2708 15.8054 15.5733 17.418 13.4858 17.418Z" fill="#2940D3"/>
<path fill-rule="evenodd" clip-rule="evenodd" d="M10.3018 13.5972C9.95676 13.5972 9.67676 13.3312 9.67676 13.0034V11.2451C9.67676 10.9174 9.95676 10.6514 10.3018 10.6514C10.6468 10.6514 10.9268 10.9174 10.9268 11.2451V13.0034C10.9268 13.3312 10.6468 13.5972 10.3018 13.5972Z" fill="#2940D3"/>
</svg>
