<svg width="15" height="15" viewBox="0 0 15 15" fill="none" xmlns="http://www.w3.org/2000/svg">
<path fill-rule="evenodd" clip-rule="evenodd" d="M7.07462 13.75H4.02087C2.49337 13.75 1.25024 12.5069 1.25024 10.9781V4.0225C1.25024 2.49375 2.49337 1.25 4.02087 1.25H7.06774C8.59649 1.25 9.84024 2.49375 9.84024 4.0225V4.605C9.84024 4.86375 9.63024 5.07375 9.37149 5.07375C9.11274 5.07375 8.90274 4.86375 8.90274 4.605V4.0225C8.90274 3.01 8.07962 2.1875 7.06774 2.1875H4.02087C3.01024 2.1875 2.18774 3.01 2.18774 4.0225V10.9781C2.18774 11.99 3.01024 12.8125 4.02087 12.8125H7.07462C8.08212 12.8125 8.90274 11.9925 8.90274 10.985V10.3956C8.90274 10.1369 9.11274 9.92688 9.37149 9.92688C9.63024 9.92688 9.84024 10.1369 9.84024 10.3956V10.985C9.84024 12.51 8.59899 13.75 7.07462 13.75Z" fill="#2940D3"/>
<mask id="mask0_1_2363" style="mask-type:alpha" maskUnits="userSpaceOnUse" x="5" y="7" width="10" height="1">
<path fill-rule="evenodd" clip-rule="evenodd" d="M5.62256 7.03125H14.0856V7.96875H5.62256V7.03125Z" fill="white"/>
</mask>
<g mask="url(#mask0_1_2363)">
<path fill-rule="evenodd" clip-rule="evenodd" d="M13.6169 7.96875H6.09131C5.83256 7.96875 5.62256 7.75875 5.62256 7.5C5.62256 7.24125 5.83256 7.03125 6.09131 7.03125H13.6169C13.8757 7.03125 14.0857 7.24125 14.0857 7.5C14.0857 7.75875 13.8757 7.96875 13.6169 7.96875Z" fill="#2940D3"/>
</g>
<mask id="mask1_1_2363" style="mask-type:alpha" maskUnits="userSpaceOnUse" x="11" y="5" width="4" height="5">
<path fill-rule="evenodd" clip-rule="evenodd" d="M11.3186 5.20947H14.0857V9.79119H11.3186V5.20947Z" fill="white"/>
</mask>
<g mask="url(#mask1_1_2363)">
<path fill-rule="evenodd" clip-rule="evenodd" d="M11.7872 9.79119C11.6672 9.79119 11.5466 9.74557 11.4553 9.65307C11.2728 9.46932 11.2734 9.17307 11.4566 8.99057L12.9528 7.49994L11.4566 6.00994C11.2734 5.82744 11.2722 5.53119 11.4553 5.34744C11.6378 5.16369 11.9341 5.16369 12.1178 5.34619L13.9478 7.16807C14.0366 7.25557 14.0859 7.37557 14.0859 7.49994C14.0859 7.62432 14.0366 7.74432 13.9478 7.83182L12.1178 9.65432C12.0266 9.74557 11.9066 9.79119 11.7872 9.79119Z" fill="#2940D3"/>
</g>
</svg>
