<svg width="14" height="14" viewBox="0 0 14 14" fill="none" xmlns="http://www.w3.org/2000/svg">
<path fill-rule="evenodd" clip-rule="evenodd" d="M6.86976 7.7938C6.47951 7.7938 6.09043 7.67409 5.76493 7.43467L3.14868 5.47601C2.96026 5.33517 2.93109 5.07897 3.08218 4.90455C3.23443 4.73067 3.50976 4.70305 3.69759 4.84334L6.31151 6.79984C6.63993 7.04142 7.10251 7.04142 7.43326 6.79767L10.0209 4.84442C10.2088 4.70197 10.4841 4.72905 10.6369 4.90347C10.7892 5.07734 10.7606 5.33301 10.5733 5.47492L7.98101 7.43142C7.65318 7.67301 7.26118 7.7938 6.86976 7.7938Z" fill="#2940D3"/>
<mask id="mask0_1_2351" style="mask-type:alpha" maskUnits="userSpaceOnUse" x="0" y="1" width="14" height="12">
<path fill-rule="evenodd" clip-rule="evenodd" d="M0.583252 1.5835H13.1249V12.146H0.583252V1.5835Z" fill="white"/>
</mask>
<g mask="url(#mask0_1_2351)">
<path fill-rule="evenodd" clip-rule="evenodd" d="M3.98934 11.3335H9.71767C9.71884 11.3324 9.7235 11.3335 9.727 11.3335C10.3926 11.3335 10.9829 11.1125 11.4356 10.6927C11.9612 10.2068 12.2499 9.50862 12.2499 8.727V5.00683C12.2499 3.49395 11.1848 2.396 9.71767 2.396H3.9905C2.52342 2.396 1.45825 3.49395 1.45825 5.00683V8.727C1.45825 9.50862 1.74759 10.2068 2.27259 10.6927C2.72525 11.1125 3.31617 11.3335 3.98117 11.3335H3.98934ZM3.97942 12.146C3.07934 12.146 2.2755 11.8427 1.65484 11.2685C0.963585 10.6282 0.583252 9.72583 0.583252 8.727V5.00683C0.583252 3.0552 2.048 1.5835 3.9905 1.5835H9.71767C11.6602 1.5835 13.1249 3.0552 13.1249 5.00683V8.727C13.1249 9.72583 12.7446 10.6282 12.0533 11.2685C11.4333 11.8421 10.6288 12.146 9.727 12.146H9.71767H3.9905H3.97942Z" fill="#2940D3"/>
</g>
</svg>
