<svg width="42" height="42" viewBox="0 0 42 42" fill="none" xmlns="http://www.w3.org/2000/svg">
<mask id="mask0_1_2395" style="mask-type:alpha" maskUnits="userSpaceOnUse" x="3" y="3" width="36" height="36">
<path fill-rule="evenodd" clip-rule="evenodd" d="M3.5 3.5H38.4998V38.5H3.5V3.5Z" fill="white"/>
</mask>
<g mask="url(#mask0_1_2395)">
<path fill-rule="evenodd" clip-rule="evenodd" d="M13.412 6.125C8.98625 6.125 6.125 9.15775 6.125 13.853V28.147C6.125 32.8422 8.98625 35.875 13.412 35.875H28.581C33.012 35.875 35.875 32.8422 35.875 28.147V13.853C35.875 9.15775 33.012 6.125 28.5845 6.125H13.412ZM28.581 38.5H13.412C7.483 38.5 3.5 34.3385 3.5 28.147V13.853C3.5 7.6615 7.483 3.5 13.412 3.5H28.5845C34.5152 3.5 38.5 7.6615 38.5 13.853V28.147C38.5 34.3385 34.5152 38.5 28.581 38.5Z" fill="#FFAE1B"/>
</g>
<path fill-rule="evenodd" clip-rule="evenodd" d="M15.4679 19.0723C14.4004 19.0723 13.5359 19.9368 13.5359 21.0008C13.5359 22.0648 14.4004 22.9293 15.4644 22.9293C16.5266 22.9293 17.3929 22.0648 17.3929 21.0008C17.3929 19.9385 16.5284 19.074 15.4679 19.0723ZM15.4644 25.5543C12.9531 25.5543 10.9109 23.5103 10.9109 21.0008C10.9109 18.4895 12.9531 16.4473 15.4644 16.4473C17.9791 16.449 20.0179 18.4913 20.0179 21.0008C20.0179 23.5103 17.9756 25.5543 15.4644 25.5543Z" fill="#FFAE1B"/>
<path fill-rule="evenodd" clip-rule="evenodd" d="M29.7669 25.5543C29.0424 25.5543 28.4544 24.9663 28.4544 24.2418V22.3115H18.7104C17.9859 22.3115 17.3979 21.7253 17.3979 20.999C17.3979 20.2745 17.9859 19.6865 18.7104 19.6865H29.7669C30.4914 19.6865 31.0794 20.2745 31.0794 20.999V24.2418C31.0794 24.9663 30.4914 25.5543 29.7669 25.5543Z" fill="#FFAE1B"/>
<path fill-rule="evenodd" clip-rule="evenodd" d="M24.8176 25.5543C24.0931 25.5543 23.5051 24.9663 23.5051 24.2418V20.999C23.5051 20.2745 24.0931 19.6865 24.8176 19.6865C25.5421 19.6865 26.1301 20.2745 26.1301 20.999V24.2418C26.1301 24.9663 25.5421 25.5543 24.8176 25.5543Z" fill="#FFAE1B"/>
</svg>
