<svg width="24" height="26" viewBox="0 0 24 26" fill="none" xmlns="http://www.w3.org/2000/svg">
<mask id="mask0_101_6462" style="mask-type:alpha" maskUnits="userSpaceOnUse" x="0" y="0" width="24" height="24">
<path fill-rule="evenodd" clip-rule="evenodd" d="M0.333252 0.833252H23.0562V23.5564H0.333252V0.833252Z" fill="white"/>
</mask>
<g mask="url(#mask0_101_6462)">
<path fill-rule="evenodd" clip-rule="evenodd" d="M11.6952 2.58325C6.39501 2.58325 2.08301 6.89409 2.08301 12.1943C2.08301 17.4944 6.39501 21.8064 11.6952 21.8064C16.9942 21.8064 21.3062 17.4944 21.3062 12.1943C21.3062 6.89409 16.9942 2.58325 11.6952 2.58325M11.6952 23.5564C5.43017 23.5564 0.333008 18.4593 0.333008 12.1943C0.333008 5.92925 5.43017 0.833252 11.6952 0.833252C17.9602 0.833252 23.0562 5.92925 23.0562 12.1943C23.0562 18.4593 17.9602 23.5564 11.6952 23.5564" fill="#61646B"/>
</g>
<mask id="mask1_101_6462" style="mask-type:alpha" maskUnits="userSpaceOnUse" x="18" y="19" width="6" height="7">
<path fill-rule="evenodd" clip-rule="evenodd" d="M18.1133 19.158H23.9747V25.0085H18.1133V19.158Z" fill="white"/>
</mask>
<g mask="url(#mask1_101_6462)">
<path fill-rule="evenodd" clip-rule="evenodd" d="M23.0999 25.0085C22.8771 25.0085 22.6531 24.9233 22.4816 24.753L18.3702 20.6533C18.0284 20.3115 18.0272 19.7573 18.3691 19.4155C18.7097 19.0713 19.2639 19.0737 19.6069 19.4132L23.7182 23.514C24.0601 23.8558 24.0612 24.4088 23.7194 24.7507C23.5491 24.9233 23.3239 25.0085 23.0999 25.0085" fill="#61646B"/>
</g>
</svg>
