<svg width="19" height="15" viewBox="0 0 19 15" fill="none" xmlns="http://www.w3.org/2000/svg">
<path d="M18.3372 6.27608C18.6995 6.27608 19 5.99156 19 5.64847V4.81166C19 1.12133 17.8158 0 13.9186 0H8.39535V1.88282C8.39535 2.22592 8.09488 2.51043 7.73256 2.51043C7.37023 2.51043 7.06977 2.22592 7.06977 1.88282V0H5.0814C1.18419 0 0 1.12133 0 4.81166V5.23006C0 5.57316 0.300465 5.85767 0.662791 5.85767C1.51116 5.85767 2.2093 6.51875 2.2093 7.32209C2.2093 8.12543 1.51116 8.78651 0.662791 8.78651C0.300465 8.78651 0 9.07102 0 9.41412V9.83252C0 13.5229 1.18419 14.6442 5.0814 14.6442H7.06977V12.7614C7.06977 12.4183 7.37023 12.1337 7.73256 12.1337C8.09488 12.1337 8.39535 12.4183 8.39535 12.7614V14.6442H13.9186C17.8158 14.6442 19 13.5229 19 9.83252C19 9.48943 18.6995 9.20491 18.3372 9.20491C17.4888 9.20491 16.7907 8.54383 16.7907 7.7405C16.7907 6.93716 17.4888 6.27608 18.3372 6.27608ZM8.39535 9.13797C8.39535 9.48106 8.09488 9.76558 7.73256 9.76558C7.37023 9.76558 7.06977 9.48106 7.06977 9.13797V5.50621C7.06977 5.16312 7.37023 4.8786 7.73256 4.8786C8.09488 4.8786 8.39535 5.16312 8.39535 5.50621V9.13797Z" fill="#FFAE1B"/>
</svg>
