<svg width="11" height="11" viewBox="0 0 11 11" fill="none" xmlns="http://www.w3.org/2000/svg">
<path fill-rule="evenodd" clip-rule="evenodd" d="M5.50008 1.60413C3.35187 1.60413 1.60425 3.35175 1.60425 5.49996C1.60425 7.64817 3.35187 9.39579 5.50008 9.39579C7.64829 9.39579 9.39591 7.64817 9.39591 5.49996C9.39591 3.35175 7.64829 1.60413 5.50008 1.60413ZM5.50008 10.0833C2.97283 10.0833 0.916748 8.02721 0.916748 5.49996C0.916748 2.97271 2.97283 0.916626 5.50008 0.916626C8.02733 0.916626 10.0834 2.97271 10.0834 5.49996C10.0834 8.02721 8.02733 10.0833 5.50008 10.0833Z" fill="#50AFFE"/>
<path fill-rule="evenodd" clip-rule="evenodd" d="M7.07264 7.19237C7.0126 7.19237 6.9521 7.17678 6.89664 7.14424L5.16873 6.11345C5.06514 6.05112 5.00098 5.93883 5.00098 5.81783V3.59583C5.00098 3.40608 5.15498 3.25208 5.34473 3.25208C5.53493 3.25208 5.68848 3.40608 5.68848 3.59583V5.62258L7.2491 6.55299C7.41181 6.65062 7.46544 6.86145 7.36827 7.02462C7.30364 7.13232 7.18952 7.19237 7.07264 7.19237Z" fill="#50AFFE"/>
</svg>
