<svg width="25" height="24" viewBox="0 0 25 24" fill="none" xmlns="http://www.w3.org/2000/svg">
<mask id="mask0_101_7009" style="mask-type:alpha" maskUnits="userSpaceOnUse" x="0" y="14" width="19" height="10">
<path fill-rule="evenodd" clip-rule="evenodd" d="M0.833252 14.7832H18.5477V23.0661H0.833252V14.7832Z" fill="white"/>
</mask>
<g mask="url(#mask0_101_7009)">
<path fill-rule="evenodd" clip-rule="evenodd" d="M9.69034 16.5332C6.44817 16.5332 2.58301 16.9497 2.58301 18.9389C2.58301 20.5162 4.97467 21.3165 9.69034 21.3165C14.406 21.3165 16.7977 20.508 16.7977 18.9155C16.7977 17.3347 14.406 16.5332 9.69034 16.5332M9.69034 23.0665C7.26834 23.0665 0.833008 23.0665 0.833008 18.9389C0.833008 14.7832 7.49934 14.7832 9.69034 14.7832C13.4925 14.7832 18.5477 15.2114 18.5477 18.9155C18.5477 23.0665 11.8813 23.0665 9.69034 23.0665" fill="#61646B"/>
</g>
<path fill-rule="evenodd" clip-rule="evenodd" d="M9.69024 2.58325C7.35108 2.58325 5.44824 4.48609 5.44824 6.82409C5.44824 9.16209 7.35108 11.0649 9.69024 11.0649H9.72641C10.8511 11.0603 11.9104 10.6181 12.7049 9.81659C13.5006 9.01742 13.9357 7.95459 13.9311 6.82759C13.9311 4.48609 12.0282 2.58325 9.69024 2.58325V2.58325ZM9.69024 12.8149C6.38624 12.8149 3.69824 10.1269 3.69824 6.82409C3.69824 3.52125 6.38624 0.833252 9.69024 0.833252C12.9931 0.833252 15.6811 3.52125 15.6811 6.82409C15.6881 8.41542 15.0709 9.91809 13.9462 11.0498C12.8239 12.1826 11.3247 12.8091 9.72991 12.8149H9.69024Z" fill="#61646B"/>
<path fill-rule="evenodd" clip-rule="evenodd" d="M17.7294 11.4871C17.3 11.4871 16.9255 11.1709 16.8637 10.7334C16.7972 10.2551 17.1297 9.81173 17.608 9.74523C19.064 9.54106 20.163 8.27756 20.1654 6.80523C20.1654 5.34223 19.1177 4.10789 17.6769 3.87223C17.1997 3.79289 16.8765 3.34373 16.9547 2.86656C17.0329 2.38939 17.4844 2.06856 17.9592 2.14439C20.2517 2.52006 21.9154 4.48123 21.9154 6.80639C21.9107 9.14556 20.1642 11.1546 17.8519 11.4789C17.811 11.4847 17.7702 11.4871 17.7294 11.4871" fill="#61646B"/>
<mask id="mask1_101_7009" style="mask-type:alpha" maskUnits="userSpaceOnUse" x="19" y="14" width="6" height="7">
<path fill-rule="evenodd" clip-rule="evenodd" d="M19.3193 14.2305H24.1421V20.0376H19.3193V14.2305Z" fill="white"/>
</mask>
<g mask="url(#mask1_101_7009)">
<path fill-rule="evenodd" clip-rule="evenodd" d="M21.7113 20.0376C21.3578 20.0376 21.0253 19.8218 20.8935 19.4729C20.722 19.0214 20.9495 18.5151 21.401 18.3448C22.3927 17.9691 22.3927 17.5106 22.3927 17.3146C22.3927 16.6531 21.6098 16.2004 20.0663 15.9706C19.588 15.8983 19.2578 15.4526 19.329 14.9754C19.4013 14.4971 19.8552 14.1763 20.3242 14.2381C23.4812 14.7106 24.1427 16.1724 24.1427 17.3146C24.1427 18.1651 23.7752 19.3166 22.0217 19.9804C21.9202 20.0189 21.8152 20.0376 21.7113 20.0376" fill="#61646B"/>
</g>
</svg>
